@startuml LiveTramsMCR
skinparam classFontColor automatic

'Models.RoutePlanner'
package Models.RoutePlanner {
Models.Resources.RouteLoader *-- Models.RoutePlanner.UnprocessedRoute
Models.RoutePlanner.RoutePlanner *-- Models.RoutePlanner.PlannedJourney
Models.RoutePlanner.RoutePlanner *-- Models.RoutePlanner.Route
Models.RoutePlanner.RoutePlanner *-- Models.RoutePlanner.RouteNotPossibleException
Models.RoutePlanner.RoutePlanner *-- Models.RoutePlanner.RouteIdentifier
Models.RoutePlanner.RouteIdentifier *-- Models.RoutePlanner.Route
Models.RoutePlanner.JourneyTimeIdentifier *-- Models.RoutePlanner.RouteTimes
Models.RoutePlanner.RoutePlannerDataModel *-- Models.Stops.StopLookup
Models.RoutePlanner.RoutePlannerDataModel *-- Models.RoutePlanner.RoutePlanner
Models.RoutePlanner.RoutePlannerDataModel *-- Models.RoutePlanner.JourneyTimeIdentifier
Models.RoutePlanner.RoutePlanner "Implements" --|> Models.RoutePlanner.IJourneyPlanner
}

class Models.RoutePlanner.RoutePlannerDataModel #Purple {
Data Model for Route planning requests
---
+ RoutePlannerDataModel(ImportedResources importedResources, IRoutePlanner routePlanner)
---
+ FindRoute(string origin, string destination): PlannedJourneyss
}

class Models.RoutePlanner.JourneyTimeIdentifier #Purple {
Identifies the times between stops for a journey.
--- 
+ JourneyTimeIdentifier(List<Route> routes, RouteTimes routeTimes)
---
+ IdentifyRouteTime(Stop origin, Stop destination, Route route): int
}

class Models.RoutePlanner.RouteTimes #Purple {
Stores the between stop times for each route, which
hides complexity and improves readability.
---
+ RouteTimes(Dictionary<string, List<int>> routeTimesMap)
---
+ AddRouteTimes(Route route, List<int> times): void
+ GetTimeBetween(string routeName, int originIndex, int destinationIndex): int 
---
- RouteTimesMap: Dictionary<string, List<int>
}

class Models.RoutePlanner.Route #Purple {
Stores the information about a single Route
---
+ Route(string name, string colour, List<Stop> stops)
---
+ GetStopsBetween(Stop start, Stop destination): List<Stop>
+ ContainsStop(Stop stop): bool
---
+ Name: string
+ Colour: string
+ Stops: List<Stop>
}

class Models.RoutePlanner.UnprocessedRoute #Purple {
POCO used for importing routes from a file.
These only contain the stop names.
The Route type containing the Stop class is created 
when the resources are imported.
---
+ Route(string name, string colour, List<string> stops)
---
+ Name: string
+ Colour: string
+ Stops: List<string>
}

class Models.RoutePlanner.PlannedJourney #Purple {
Stores a possible route between an origin and destination
---
+ PlannedRoute()
---
+ OriginStop: Stop
+ DestinationStop: Stop
+ InterchangeStop: Stop
+ RouteFromOrigin: Route
+ TimeFromOrigin: int
+ RouteFromInterchange: Route
+ TimeFromInterchange: int
+ RequiresInterchange: bool
+ RouteDetails: string
}

class Models.RoutePlanner.RouteNotPossibleException  #Purple {
Thrown when a route between two stops 
cannot be generated
}

interface Models.RoutePlanner.IJourneyPlanner #Purple {
Interface needed to be implemented for a 
route planner. 
---
+ FindRoute(Stop origin, Stop destination): List<PlannedRoute>
}

class Models.RoutePlanner.RouteIdentifier #Purple {
Identifies valid routes for a journey by identifying routes that include the start
and destination stops. 
---
+ RouteIdentifier(List<Route> routes)
---
+ IdentifyInterchangeStop(Stop origin, Stop destination): Stop
+ IdentifyRoutesBetween(Stop origin, Stop destination): List<Route>
+ IdentifyIntermediateStops(Stop origin, Stop destination, Route route): List<Stop>
+ IsInterchangeRequired(Stop origin, Stop destination): bool
+ IdentifyRouteTerminus(Stop origin, Stop destination, Route route): Stop
}


class Models.RoutePlanner.RoutePlanner #Purple {
Identifies a journey between two stops
---
+ RoutePlanner(List<Route> routes)
---
+ PlanJourney(Stop origin, Stop destination): List<PlannedRoute>
}

'Models.Services' 
package Models.Services {
Models.Services.FormattedServices *-- Models.Services.Tram 
Models.Services.FormattedServices *-- Models.Services.TramComparer 
Models.Services.FormattedDepartureBoardServices *-- Models.Services.Tram
Models.Services.ServiceRequester "Implements" --|> Models.Services.IRequester
Models.Services.ServiceRequester *-- Models.Services.UnformattedServices
Models.Services.ServiceFormatter *-- Models.Services.FormattedServices
Models.Services.ServiceFormatter *-- Models.Services.FormattedDepartureBoardServices
Models.Services.ServiceProcessor *-- Models.Services.ServiceRequester
Models.Services.ServiceProcessor *-- Models.Services.ServiceFormatter
Models.Services.ServiceProcessor *-- Models.Stops.StopLookup
Models.Services.ServicesDataModel *-- Models.Services.ServiceProcessor
}

class Models.Services.ServicesDataModel #Yellow {
Data model that handles requests for service information.
---
+ ServicesDataModel(ImportedResources importedResources, IRequester requester)
---
+ RequestServices(string stop): FormattedServices
+ RequestDepartureBoardServices(string stop): FormattedDepartureBoardServices
}

class Models.Services.Tram #Yellow{
Stores the information for a tram service, such as destination, carriages, wait
and status
---
+ Tram(string destination, string carriages, string status, string wait)
---
+ Destination: string
+ Carriages: string
+ Status: string
+ Wait: string
}

class Models.Services.FormattedServices #Yellow{
Formatted version of the services retrieved from the 
TfGM API.
---
+ Destinations: Dictionary<string, SortedSet<Tram>>
+ Messages: HashSet<string>
}

class Models.Services.FormattedDepartureBoardServices #Yellow{
Formatted version of the services retrieved from the 
TfGM API for replicating that of a departure board.
---
+ Trams: SortedSet<Tram>>
+ Messages: HashSet<string>
}

class Models.Services.TramComparer #Yellow {
IComparer responsible for ensuring Trams are 
stored in the correct order
---
+ Compare(Tram aTram, Tram bTram): int
}

interface Models.Services.IRequester #Yellow{
Interface for classes wanting to request services.
---
+ RequestServices(List<int> ids)
List<UnformattedServices> 
}

class Models.Services.UnformattedServices #Yellow {
Object for storing result of service
request from TfGM API. This mimics the
returned JSON.
---
+ Id: int
+ Line: string
+ Tlaref: string
+ Pidref: string
+ StationLocation: string
+ AtcoCode: string
+ Direction: string
+ Dest0: string
+ Carriages0: string 
+ Status0: string 
+ Wait0: string
+ Dest1: string 
+ Carriages1: string 
+ Status1: string
+ Wait1: string
+ Dest2: string
+ Carriages2: string
+ Status2: string
+ Wait2: string
+ Dest3: string
+ Carriages3: string
+ Status3: string
+ Wait3: string
+ MessageBoard: string
+ LastUpdated: string
}
class Models.Services.ServiceRequester #Yellow {
Requests service information from the TfGM API.
---
+ ServiceRequester(ApiOptions apiOptions)
---
+ RequestServices(List<int> ids): List<UnformattedServices> 
- RequestId(int id): Task<UnformattedServices> 
}

class Models.Services.ServiceFormatter #Yellow {
Takes a list of unformatted services, and converts them into a 
formatted object that is more useful for users
---
+ FormatServices(List<UnformattedServices> unformattedServices): FormattedServices
+ FormatDepartureBoardServices(List<UnformattedServices> unformattedServices): FormattedDepartureBoardServices 
- AddTram(FormattedServices formattedServices, Tram tram): void
- AddTram(FormattedDepartureBoardServices formattedServices, Tram tram): void 
- FormatMessage(FormattedServices formattedServices, string message): void
- FormatMessage(FormattedDepartureBoardServices formattedServices, string message): void
}

class Models.Services.ServiceProcessor #Yellow {
Handles the requesting and formatting of TfGM service information 
---
+ ServiceProcessor(IRequester requester, ImportedResources resources)
+ RequestServices(string stop): FormattedServices 
+ RequestDepartureBoardServices(string stop): FormattedDepartureBoardServices
} 

'Models.Stops'
package Models.Stops {
Models.Stops.StopLookup *-- Models.Stops.Stop
Models.Stops.StopLookup *-- Models.Stops.StopNotFoundException
}

class Models.Stops.StopsDataModel #Orange {
Data model for processing stops related requests.
---
+ StopsDataModel(ImportedResources importedResources)
---
GetStops(): List<Stop> 
}

class Models.Stops.StopLookup #Orange {
Looks up the Stop Information for a given stop name 
or TLAREF.
---
+ StopLookup(ImportedResources importedResources)
+ TlarefLookup(string tlaref): List<int> 
+ StationNameLookup(string stationName): List<int> 
+ LookupIDs(string value): List<int> 
+ IdentifyStop(string value): Stop
}

class Models.Stops.StopNotFoundException #Orange {
Exception thrown when a stop could not be identified
}

class Models.Stops.Stop #Orange{
POCO for storing Stop information 
---
+ StopName: string
+ Tlaref: string
+ Ids: ArrayList
+ AtcoCode: string
+ Latitude: string
+ Longitude: string
+ Street: string
+ RoadCrossing: string
+ Line: string
+ StopZone: string
}

'Models.Resources'
package Models.Resources {
Models.Resources.StopLoader "Uses" <--- Models.Resources.LoaderHelper
Models.Resources.StationNamesToTlarefLoader "Uses" <--- Models.Resources.LoaderHelper
Models.Resources.TlarefToIdsLoader "Uses" <--- Models.Resources.LoaderHelper
Models.Resources.RouteLoader "Uses" <--- Models.Resources.LoaderHelper
Models.Resources.StopLoader "Uses" <--- Models.Stops.Stop
Models.Resources.ResourceLoader *-- Models.Resources.ImportedResources
Models.Resources.ResourceLoader *-- Models.Resources.StopLoader
Models.Resources.ResourceLoader *-- Models.Resources.StationNamesToTlarefLoader
Models.Resources.ResourceLoader *-- Models.Resources.TlarefToIdsLoader
Models.Resources.ResourceLoader *-- Models.Resources.RouteLoader
Models.Resources.RouteLoader *-- Models.RoutePlanner.Route
Models.Resources.ResourceLoader *-- Models.Resources.ResourcesConfig
Models.Services.ServiceRequester *-- Models.Resources.ApiOptions 
}

class Models.Resources.ApiOptions #LightSkyBlue {
Stores API settings used when requesting data from the TfGM API.
---
+ OcpApimSubscriptionKey: String
}

class Models.Resources.LoaderHelper #LightSkyBlue {
Checks file requirements of resource files when loaded
---
+ CheckFileRequirements(string filePath, string argName): string
}

class Models.Resources.ImportedResources #LightSkyBlue {
Stores resources that have been loaded into the program
---
+ ImportedStops: List<Stop>
+ StationNamesToTlaref: Dictionary<string, string> 
+ TlarefsToIds: Dictionary<string, List<int>> 
+ ImportedRoutes: List<Route>
}

class Models.Resources.TlarefToIdsLoader #LightSkyBlue {
Loads the TlarefsToIds Dictionary
---
+ TlarefToIdsLoader(ResourcesConfig resourcesConfig)
+ Dictionary<string, List<int>> ImportTlarefsToIds(): Dictionary<string, List<int>> 
}

class Models.Resources.RouteLoader #LightSkyBlue {
Loads stored Route data
----
+ RouteLoader(ResourcesConfig resourcesConfig, List<Stop> stops)
+ ImportRoutes(): List<Route>
}

class Models.Resources.StationNamesToTlarefLoader #LightSkyBlue {
Loads the Station names to Tlarefs dictionary
---
+ StationNamesToTlarefLoader(ResourcesConfig resourcesConfig)
+ ImportStationNamesToTlarefs(): Dictionary<string, string> 
}

class Models.Resources.StopLoader #LightSkyBlue {
Loads stored data about stops
---
+ StopLoader(ResourcesConfig resourcesConfig)
+ ImportStops(): List<Stop> ImportStops()
} 

class Models.Resources.ResourceLoader #LightSkyBlue {
Loads the file resources for the system using the file loaders
---
+ ResourceLoader(ResourcesConfig resourcesConfig)
+ ImportResources(): ImportedResources
}

class Models.Resources.ResourcesConfig #LightSkyBlue {
+ StopResourcePath: string
+ StationNamesToTlarefsPath: string
+ TlarefsToIdsPath: string
+ RoutesResourcePath: string
+ DeepCopy(): ResourcesConfig
}

'Controllers
package Controllers {
Controllers.StopsController "Uses" <-- Models.Stops.StopsDataModel
Controllers.ServiceController "Uses" <-- Models.Services.ServicesDataModel
Controllers.RoutePlannerController "Uses" <-- Models.RoutePlanner.RoutePlannerDataModel
Controllers.DepartureBoardServiceController "Uses" <-- Models.Services.ServicesDataModel
}

class Controllers.RoutePlannerController #HoneyDew {
Controller for handling requests for planning RoutesResourcePath
---
+ RoutePlannerController(IRoutePlannerDataModel)
---
+ FindRoute(string origin, string destination): IActionResult
}

class Controllers.ServiceController #HoneyDew{
Controller for handling requests for service information
---
+ ServiceController(IServiceDataModel serviceDataModel)
---
+ GetService(string stop): IActionResult 
}

class Controllers.DepartureBoardServiceController #HoneyDew{
 Controller for handling requests for service information 
 formatted for departure boards
 ---
 + DepartureBoardServiceController(IServiceDataModel serviceDataModel)
 ---
 + GetService(string stop): IActionResult 
 }

class Controllers.StopsController #HoneyDew {
Controller for handling requests for stop information
---
+ StopsController(IStopsDataModel)
---
+ GetAllStops(): IActionResult 
}

@enduml
